<svg xmlns="http://www.w3.org/2000/svg" xmlns:xlink="http://www.w3.org/1999/xlink" width="500" zoomAndPan="magnify" viewBox="0 0 375 374.999991" height="500" preserveAspectRatio="xMidYMid meet" version="1.0"><defs><clipPath id="8294d4e390"><path d="M 229 279 L 345 279 L 345 361.480469 L 229 361.480469 Z M 229 279 " clip-rule="nonzero"/></clipPath><clipPath id="7318b396c2"><path d="M 156 1.480469 L 247 1.480469 L 247 88 L 156 88 Z M 156 1.480469 " clip-rule="nonzero"/></clipPath><clipPath id="cad5891cfe"><path d="M 74 286 L 138 286 L 138 361.480469 L 74 361.480469 Z M 74 286 " clip-rule="nonzero"/></clipPath></defs><path fill="#ffffff" d="M 247.875 37.585938 C 247.875 39.660156 249.558594 41.339844 251.628906 41.339844 L 264.015625 41.339844 C 266.089844 41.339844 267.773438 39.660156 267.773438 37.585938 C 267.773438 35.507812 266.089844 33.828125 264.015625 33.828125 L 251.628906 33.828125 C 249.554688 33.828125 247.875 35.507812 247.875 37.585938 Z M 247.875 37.585938 " fill-opacity="1" fill-rule="nonzero"/><path fill="#ffffff" d="M 250.390625 32.75 C 251.179688 32.75 251.976562 32.5 252.65625 31.988281 L 262.527344 24.503906 C 264.179688 23.25 264.507812 20.894531 263.253906 19.238281 C 262 17.585938 259.644531 17.261719 257.992188 18.511719 L 248.121094 25.996094 C 246.46875 27.25 246.144531 29.609375 247.394531 31.261719 C 248.132812 32.238281 249.253906 32.75 250.390625 32.75 Z M 250.390625 32.75 " fill-opacity="1" fill-rule="nonzero"/><path fill="#ffffff" d="M 262.527344 50.667969 L 252.65625 43.183594 C 251.003906 41.929688 248.648438 42.253906 247.394531 43.90625 C 246.144531 45.5625 246.46875 47.917969 248.121094 49.171875 L 257.996094 56.65625 C 258.671875 57.171875 259.46875 57.417969 260.257812 57.417969 C 261.394531 57.417969 262.515625 56.90625 263.253906 55.929688 C 264.507812 54.277344 264.179688 51.921875 262.527344 50.667969 Z M 262.527344 50.667969 " fill-opacity="1" fill-rule="nonzero"/><path fill="#ffffff" d="M 371.238281 135.839844 L 332.890625 135.839844 C 332.667969 135.242188 332.441406 134.644531 332.214844 134.050781 L 327.554688 135.839844 L 305.410156 135.839844 C 303.335938 135.839844 301.65625 137.523438 301.65625 139.597656 L 301.65625 190.171875 C 301.65625 192.25 303.335938 193.929688 305.410156 193.929688 L 320.585938 193.929688 L 320.585938 211.128906 C 320.585938 212.675781 321.535156 214.066406 322.976562 214.628906 C 323.421875 214.800781 323.882812 214.886719 324.339844 214.886719 C 325.371094 214.886719 326.378906 214.460938 327.105469 213.671875 L 333.9375 206.242188 C 333.757812 207.820312 333.550781 209.398438 333.320312 210.957031 L 340.75 212.058594 C 341.078125 209.835938 341.359375 207.574219 341.59375 205.332031 L 335.367188 204.691406 L 339.699219 199.976562 L 342.039062 200.140625 C 342.105469 199.179688 342.164062 198.207031 342.214844 197.242188 L 345.261719 193.929688 L 371.238281 193.929688 C 373.3125 193.929688 374.992188 192.246094 374.992188 190.171875 L 374.992188 139.597656 C 374.992188 137.523438 373.3125 135.839844 371.238281 135.839844 Z M 367.484375 186.417969 L 343.613281 186.417969 C 342.5625 186.417969 341.5625 186.855469 340.851562 187.628906 L 328.097656 201.496094 L 328.097656 190.171875 C 328.097656 188.097656 326.417969 186.417969 324.34375 186.417969 L 309.164062 186.417969 L 309.164062 143.355469 L 367.484375 143.355469 Z M 367.484375 186.417969 " fill-opacity="1" fill-rule="nonzero"/><path fill="#ffffff" d="M 316.871094 182.84375 C 318.820312 183.550781 320.972656 182.546875 321.679688 180.59375 L 323.257812 176.25 L 332.292969 176.25 L 333.867188 180.59375 C 334.421875 182.121094 335.863281 183.070312 337.398438 183.070312 C 337.824219 183.070312 338.253906 182.996094 338.679688 182.84375 C 340.628906 182.136719 341.632812 179.980469 340.925781 178.03125 L 340.710938 177.441406 C 342.417969 180.96875 346.03125 183.410156 350.199219 183.410156 C 351.917969 183.410156 353.539062 182.996094 354.972656 182.265625 C 355.609375 182.769531 356.417969 183.070312 357.292969 183.070312 C 359.367188 183.070312 361.046875 181.386719 361.046875 179.3125 L 361.046875 152.800781 C 361.046875 150.726562 359.367188 149.042969 357.292969 149.042969 C 355.21875 149.042969 353.539062 150.726562 353.539062 152.800781 L 353.539062 162.875 C 352.488281 162.523438 351.367188 162.332031 350.199219 162.332031 C 344.394531 162.332031 339.667969 167.0625 339.667969 172.871094 C 339.667969 173.757812 339.78125 174.621094 339.988281 175.445312 L 331.304688 151.519531 C 330.765625 150.03125 329.355469 149.042969 327.773438 149.042969 C 326.195312 149.042969 324.785156 150.03125 324.246094 151.519531 L 314.621094 178.03125 C 313.914062 179.980469 314.917969 182.136719 316.871094 182.84375 Z M 350.199219 169.847656 C 351.867188 169.847656 353.222656 171.203125 353.222656 172.871094 C 353.222656 174.539062 351.867188 175.894531 350.199219 175.894531 C 348.535156 175.894531 347.179688 174.539062 347.179688 172.871094 C 347.175781 171.203125 348.53125 169.847656 350.199219 169.847656 Z M 327.773438 163.804688 L 329.5625 168.738281 L 325.984375 168.738281 Z M 327.773438 163.804688 " fill-opacity="1" fill-rule="nonzero"/><path fill="#ffffff" d="M 52.414062 172.105469 L 31.695312 160.136719 C 30.535156 159.464844 29.105469 159.464844 27.941406 160.136719 C 26.78125 160.808594 26.066406 162.050781 26.066406 163.390625 L 26.066406 187.328125 C 26.066406 188.667969 26.78125 189.910156 27.941406 190.582031 C 28.523438 190.917969 29.171875 191.085938 29.820312 191.085938 C 30.46875 191.085938 31.117188 190.917969 31.695312 190.582031 L 52.414062 178.613281 C 53.574219 177.941406 54.289062 176.699219 54.289062 175.359375 C 54.289062 174.015625 53.574219 172.777344 52.414062 172.105469 Z M 33.574219 180.820312 L 33.574219 169.898438 L 43.027344 175.359375 Z M 33.574219 180.820312 " fill-opacity="1" fill-rule="nonzero"/><path fill="#ffffff" d="M 57.59375 149.457031 L 64.125 149.457031 L 64.125 155.3125 L 57.59375 155.3125 Z M 57.59375 149.457031 " fill-opacity="1" fill-rule="nonzero"/><path fill="#ffffff" d="M 11.355469 149.457031 L 17.886719 149.457031 L 17.886719 155.3125 L 11.355469 155.3125 Z M 11.355469 149.457031 " fill-opacity="1" fill-rule="nonzero"/><path fill="#ffffff" d="M 22.914062 149.457031 L 29.449219 149.457031 L 29.449219 155.3125 L 22.914062 155.3125 Z M 22.914062 149.457031 " fill-opacity="1" fill-rule="nonzero"/><path fill="#ffffff" d="M 46.035156 149.457031 L 52.566406 149.457031 L 52.566406 155.3125 L 46.035156 155.3125 Z M 46.035156 149.457031 " fill-opacity="1" fill-rule="nonzero"/><path fill="#ffffff" d="M 34.472656 149.457031 L 41.007812 149.457031 L 41.007812 155.3125 L 34.472656 155.3125 Z M 34.472656 149.457031 " fill-opacity="1" fill-rule="nonzero"/><path fill="#ffffff" d="M 34.472656 195.808594 L 41.007812 195.808594 L 41.007812 201.664062 L 34.472656 201.664062 Z M 34.472656 195.808594 " fill-opacity="1" fill-rule="nonzero"/><path fill="#ffffff" d="M 57.59375 195.808594 L 64.125 195.808594 L 64.125 201.664062 L 57.59375 201.664062 Z M 57.59375 195.808594 " fill-opacity="1" fill-rule="nonzero"/><path fill="#ffffff" d="M 22.914062 195.808594 L 29.449219 195.808594 L 29.449219 201.664062 L 22.914062 201.664062 Z M 22.914062 195.808594 " fill-opacity="1" fill-rule="nonzero"/><path fill="#ffffff" d="M 46.035156 195.808594 L 52.566406 195.808594 L 52.566406 201.664062 L 46.035156 201.664062 Z M 46.035156 195.808594 " fill-opacity="1" fill-rule="nonzero"/><path fill="#ffffff" d="M 11.355469 195.808594 L 17.886719 195.808594 L 17.886719 201.664062 L 11.355469 201.664062 Z M 11.355469 195.808594 " fill-opacity="1" fill-rule="nonzero"/><path fill="#ffffff" d="M 85.878906 313.429688 C 85.878906 315.261719 87.363281 316.746094 89.191406 316.746094 L 120.917969 316.746094 C 122.75 316.746094 124.234375 315.261719 124.234375 313.429688 C 124.234375 311.59375 122.75 310.109375 120.917969 310.109375 L 89.191406 310.109375 C 87.363281 310.109375 85.878906 311.59375 85.878906 313.429688 Z M 85.878906 313.429688 " fill-opacity="1" fill-rule="nonzero"/><path fill="#ffffff" d="M 120.917969 321.363281 L 89.191406 321.363281 C 87.363281 321.363281 85.878906 322.847656 85.878906 324.679688 C 85.878906 326.511719 87.363281 328 89.191406 328 L 120.917969 328 C 122.75 328 124.234375 326.511719 124.234375 324.679688 C 124.234375 322.847656 122.75 321.363281 120.917969 321.363281 Z M 120.917969 321.363281 " fill-opacity="1" fill-rule="nonzero"/><path fill="#ffffff" d="M 120.917969 332.617188 L 89.191406 332.617188 C 87.363281 332.617188 85.878906 334.101562 85.878906 335.933594 C 85.878906 337.765625 87.363281 339.253906 89.191406 339.253906 L 120.917969 339.253906 C 122.75 339.253906 124.234375 337.765625 124.234375 335.933594 C 124.234375 334.101562 122.75 332.617188 120.917969 332.617188 Z M 120.917969 332.617188 " fill-opacity="1" fill-rule="nonzero"/><path fill="#ffffff" d="M 120.917969 343.871094 L 89.191406 343.871094 C 87.363281 343.871094 85.878906 345.355469 85.878906 347.1875 C 85.878906 349.019531 87.363281 350.503906 89.191406 350.503906 L 120.917969 350.503906 C 122.75 350.503906 124.234375 349.019531 124.234375 347.1875 C 124.234375 345.355469 122.75 343.871094 120.917969 343.871094 Z M 120.917969 343.871094 " fill-opacity="1" fill-rule="nonzero"/><g clip-path="url(#8294d4e390)"><path fill="#ffffff" d="M 342.585938 301.6875 L 330.292969 296.386719 L 334.097656 283.546875 C 334.46875 282.296875 334.070312 280.941406 333.082031 280.089844 C 332.09375 279.238281 330.695312 279.046875 329.511719 279.597656 L 309.878906 288.796875 C 309.019531 289.199219 308.375 289.949219 308.105469 290.859375 L 303.886719 305.09375 L 298.355469 307.683594 C 297.085938 305.515625 295.597656 303.484375 293.890625 301.613281 C 294.34375 301.191406 294.792969 300.761719 295.234375 300.335938 L 290.023438 294.921875 C 289.441406 295.484375 288.847656 296.046875 288.253906 296.601562 C 286.121094 295.074219 283.828125 293.785156 281.390625 292.753906 C 276.980469 290.890625 272.300781 289.941406 267.476562 289.941406 C 262.652344 289.941406 257.972656 290.890625 253.5625 292.753906 C 249.304688 294.554688 245.484375 297.136719 242.199219 300.417969 C 238.917969 303.703125 236.34375 307.527344 234.542969 311.785156 C 232.675781 316.199219 231.730469 320.882812 231.730469 325.710938 C 231.730469 326.9375 231.792969 328.152344 231.914062 329.359375 C 231.164062 329.59375 230.414062 329.820312 229.667969 330.039062 L 231.78125 337.25 C 232.339844 337.085938 232.902344 336.917969 233.464844 336.746094 C 233.78125 337.71875 234.140625 338.683594 234.542969 339.632812 C 236.34375 343.890625 238.917969 347.714844 242.199219 351 C 245.484375 354.285156 249.304688 356.863281 253.5625 358.664062 C 257.972656 360.527344 262.652344 361.476562 267.476562 361.476562 C 272.300781 361.476562 276.980469 360.527344 281.390625 358.664062 C 285.648438 356.863281 289.46875 354.285156 292.75 351 C 296.03125 347.714844 298.609375 343.890625 300.410156 339.632812 C 302.273438 335.21875 303.21875 330.535156 303.21875 325.710938 C 303.21875 321.574219 302.527344 317.542969 301.152344 313.699219 L 306.699219 311.101562 L 320.324219 316.976562 C 320.742188 317.15625 321.191406 317.25 321.636719 317.25 C 322.117188 317.25 322.597656 317.144531 323.042969 316.933594 L 342.675781 307.738281 C 343.859375 307.183594 344.609375 305.988281 344.585938 304.683594 C 344.566406 303.378906 343.785156 302.203125 342.585938 301.6875 Z M 288.0625 346.308594 C 282.5625 351.808594 275.25 354.839844 267.476562 354.839844 C 259.699219 354.839844 252.386719 351.808594 246.890625 346.308594 C 241.390625 340.804688 238.363281 333.492188 238.363281 325.710938 C 238.363281 317.925781 241.390625 310.613281 246.890625 305.109375 C 252.386719 299.609375 259.699219 296.578125 267.476562 296.578125 C 275.25 296.578125 282.5625 299.609375 288.0625 305.109375 C 289.707031 306.757812 291.132812 308.570312 292.320312 310.507812 L 287.535156 312.75 C 286.628906 311.34375 285.566406 310.027344 284.355469 308.816406 C 279.847656 304.304688 273.851562 301.820312 267.476562 301.820312 C 261.097656 301.820312 255.101562 304.304688 250.59375 308.816406 C 246.085938 313.332031 243.601562 319.328125 243.601562 325.710938 C 243.601562 332.089844 246.085938 338.089844 250.59375 342.601562 C 255.105469 347.113281 261.097656 349.597656 267.476562 349.597656 C 273.851562 349.597656 279.847656 347.113281 284.355469 342.601562 C 288.867188 338.089844 291.347656 332.089844 291.347656 325.710938 C 291.347656 323.324219 291.003906 320.988281 290.332031 318.765625 L 295.117188 316.523438 C 296.085938 319.449219 296.589844 322.539062 296.589844 325.710938 C 296.589844 333.492188 293.558594 340.804688 288.0625 346.308594 Z M 264.722656 327.097656 C 265.289062 328.304688 266.484375 329.007812 267.730469 329.007812 C 268.203125 329.007812 268.679688 328.910156 269.132812 328.695312 L 272.683594 327.035156 C 272.089844 329.359375 269.980469 331.085938 267.476562 331.085938 C 264.515625 331.085938 262.105469 328.675781 262.105469 325.710938 C 262.105469 322.746094 264.515625 320.335938 267.476562 320.335938 C 268.386719 320.335938 269.242188 320.5625 269.996094 320.964844 L 266.320312 322.6875 C 264.664062 323.460938 263.949219 325.4375 264.722656 327.097656 Z M 267.476562 313.699219 C 260.855469 313.699219 255.472656 319.085938 255.472656 325.710938 C 255.472656 332.332031 260.855469 337.722656 267.476562 337.722656 C 274.09375 337.722656 279.480469 332.332031 279.480469 325.710938 C 279.480469 325.097656 279.433594 324.5 279.34375 323.914062 L 284.230469 321.625 C 284.546875 322.9375 284.71875 324.304688 284.71875 325.710938 C 284.71875 335.222656 276.984375 342.960938 267.476562 342.960938 C 257.96875 342.960938 250.234375 335.222656 250.234375 325.710938 C 250.234375 316.199219 257.96875 308.457031 267.476562 308.457031 C 273.214844 308.457031 278.304688 311.277344 281.441406 315.605469 L 276.574219 317.882812 C 274.371094 315.324219 271.109375 313.699219 267.476562 313.699219 Z M 314.039062 294.171875 L 325.644531 288.738281 L 323.523438 295.894531 L 311.917969 301.328125 Z M 321.582031 310.292969 L 314.730469 307.339844 L 326.335938 301.90625 L 333.183594 304.859375 Z M 321.582031 310.292969 " fill-opacity="1" fill-rule="nonzero"/></g><path fill="#ffffff" d="M 232.933594 275.339844 C 232.933594 273.152344 231.160156 271.378906 228.976562 271.378906 L 211.375 271.378906 L 211.375 255.085938 L 273.5 255.085938 C 275.6875 255.085938 277.457031 253.308594 277.457031 251.121094 L 277.457031 126.179688 C 277.457031 123.992188 275.6875 122.21875 273.5 122.21875 L 105.777344 122.21875 C 103.589844 122.21875 101.816406 123.992188 101.816406 126.179688 L 101.816406 251.125 C 101.816406 253.3125 103.589844 255.085938 105.777344 255.085938 L 167.898438 255.085938 L 167.898438 271.378906 L 150.300781 271.378906 C 148.113281 271.378906 146.339844 273.152344 146.339844 275.339844 C 146.339844 277.53125 148.113281 279.304688 150.300781 279.304688 L 228.976562 279.304688 C 231.164062 279.300781 232.933594 277.53125 232.933594 275.339844 Z M 109.738281 130.140625 L 269.539062 130.140625 L 269.539062 223.976562 L 109.738281 223.976562 Z M 203.457031 271.378906 L 175.816406 271.378906 L 175.816406 255.085938 L 203.457031 255.085938 Z M 207.417969 247.007812 L 171.859375 247.007812 C 171.480469 247.007812 171.113281 247.0625 170.765625 247.160156 L 109.738281 247.160156 L 109.738281 231.898438 L 269.539062 231.898438 L 269.539062 247.160156 L 208.511719 247.160156 C 208.164062 247.0625 207.796875 247.007812 207.417969 247.007812 Z M 207.417969 247.007812 " fill-opacity="1" fill-rule="nonzero"/><path fill="#ffffff" d="M 66.199219 108.332031 L 59.941406 104.175781 C 58.753906 105.96875 57.582031 107.8125 56.46875 109.65625 L 62.894531 113.542969 C 63.953125 111.792969 65.066406 110.039062 66.199219 108.332031 Z M 66.199219 108.332031 " fill-opacity="1" fill-rule="nonzero"/><path fill="#ffffff" d="M 87.179688 83.269531 L 81.992188 77.835938 C 80.4375 79.324219 78.890625 80.863281 77.398438 82.410156 L 82.808594 87.625 C 84.226562 86.148438 85.699219 84.683594 87.179688 83.269531 Z M 87.179688 83.269531 " fill-opacity="1" fill-rule="nonzero"/><path fill="#ffffff" d="M 95.339844 76.027344 L 90.566406 70.226562 C 88.910156 71.59375 87.253906 73.015625 85.652344 74.449219 L 90.660156 80.046875 C 92.183594 78.679688 93.757812 77.328125 95.339844 76.027344 Z M 95.339844 76.027344 " fill-opacity="1" fill-rule="nonzero"/><path fill="#ffffff" d="M 55.519531 127.363281 L 48.714844 124.183594 C 47.804688 126.136719 46.925781 128.132812 46.097656 130.121094 L 53.03125 133.007812 C 53.816406 131.117188 54.65625 129.21875 55.519531 127.363281 Z M 55.519531 127.363281 " fill-opacity="1" fill-rule="nonzero"/><path fill="#ffffff" d="M 79.574219 91.097656 L 74 86.0625 C 72.558594 87.660156 71.128906 89.308594 69.757812 90.964844 L 75.535156 95.761719 C 76.84375 94.1875 78.199219 92.617188 79.574219 91.097656 Z M 79.574219 91.097656 " fill-opacity="1" fill-rule="nonzero"/><path fill="#ffffff" d="M 60.503906 117.648438 L 53.957031 113.96875 C 52.902344 115.847656 51.875 117.773438 50.902344 119.691406 L 57.597656 123.09375 C 58.523438 121.265625 59.503906 119.433594 60.503906 117.648438 Z M 60.503906 117.648438 " fill-opacity="1" fill-rule="nonzero"/><path fill="#ffffff" d="M 132.613281 53.679688 L 129.753906 46.730469 C 127.765625 47.550781 125.769531 48.421875 123.816406 49.328125 L 126.96875 56.148438 C 128.824219 55.289062 130.722656 54.460938 132.613281 53.679688 Z M 132.613281 53.679688 " fill-opacity="1" fill-rule="nonzero"/><path fill="#ffffff" d="M 153.304688 46.917969 L 151.511719 39.621094 C 149.425781 40.132812 147.320312 40.699219 145.257812 41.296875 L 147.355469 48.511719 C 149.316406 47.941406 151.320312 47.40625 153.304688 46.917969 Z M 153.304688 46.917969 " fill-opacity="1" fill-rule="nonzero"/><path fill="#ffffff" d="M 122.699219 58.207031 L 119.328125 51.492188 C 117.410156 52.457031 115.480469 53.476562 113.601562 54.523438 L 117.253906 61.089844 C 119.039062 60.09375 120.871094 59.125 122.699219 58.207031 Z M 122.699219 58.207031 " fill-opacity="1" fill-rule="nonzero"/><path fill="#ffffff" d="M 72.566406 99.464844 L 66.632812 94.855469 C 65.316406 96.554688 64.011719 98.308594 62.765625 100.0625 L 68.886719 104.417969 C 70.070312 102.75 71.3125 101.082031 72.566406 99.464844 Z M 72.566406 99.464844 " fill-opacity="1" fill-rule="nonzero"/><path fill="#ffffff" d="M 142.832031 49.910156 L 140.5 42.769531 C 138.457031 43.4375 136.402344 44.15625 134.386719 44.910156 L 137.019531 51.949219 C 138.9375 51.230469 140.890625 50.546875 142.832031 49.910156 Z M 142.832031 49.910156 " fill-opacity="1" fill-rule="nonzero"/><path fill="#ffffff" d="M 104.011719 69.414062 L 99.683594 63.273438 C 97.925781 64.511719 96.171875 65.808594 94.46875 67.121094 L 99.050781 73.074219 C 100.671875 71.824219 102.339844 70.59375 104.011719 69.414062 Z M 104.011719 69.414062 " fill-opacity="1" fill-rule="nonzero"/><path fill="#ffffff" d="M 113.148438 63.460938 L 109.289062 57.015625 C 107.441406 58.121094 105.597656 59.28125 103.800781 60.464844 L 107.929688 66.742188 C 109.636719 65.617188 111.394531 64.511719 113.148438 63.460938 Z M 113.148438 63.460938 " fill-opacity="1" fill-rule="nonzero"/><g clip-path="url(#7318b396c2)"><path fill="#ffffff" d="M 158.832031 45.671875 C 161.339844 51.179688 166.691406 55.125 172.996094 55.621094 L 172.996094 77.949219 C 172.996094 82.992188 177.097656 87.09375 182.136719 87.09375 L 183.023438 87.09375 C 188.0625 87.09375 192.164062 82.992188 192.164062 77.949219 L 192.164062 55.675781 L 198.96875 55.675781 C 199.105469 55.71875 199.242188 55.757812 199.386719 55.785156 C 210.242188 57.917969 220.3125 62.972656 228.507812 70.40625 L 232.878906 74.371094 C 233.585938 75.011719 234.488281 75.34375 235.402344 75.34375 C 235.917969 75.34375 236.433594 75.238281 236.921875 75.023438 C 238.28125 74.421875 239.15625 73.074219 239.15625 71.589844 L 239.164062 49.398438 C 243.609375 47.832031 246.804688 43.589844 246.804688 38.613281 C 246.804688 33.636719 243.609375 29.394531 239.164062 27.828125 L 239.15625 5.527344 C 239.15625 4.039062 238.28125 2.695312 236.921875 2.09375 C 235.566406 1.488281 233.980469 1.746094 232.878906 2.742188 L 228.507812 6.707031 C 220.3125 14.140625 210.242188 19.199219 199.386719 21.332031 C 199.109375 21.386719 198.847656 21.46875 198.597656 21.578125 L 174.347656 21.578125 C 165.058594 21.578125 157.480469 29.058594 157.3125 38.316406 C 157.015625 38.375 156.71875 38.4375 156.425781 38.5 L 157.976562 45.851562 C 158.257812 45.792969 158.546875 45.730469 158.832031 45.671875 Z M 239.140625 38.070312 C 239.15625 37.917969 239.167969 37.765625 239.167969 37.613281 L 239.167969 34.523438 C 240.265625 35.542969 240.953125 37 240.953125 38.613281 C 240.953125 40.226562 240.265625 41.683594 239.164062 42.699219 L 239.167969 39.503906 C 239.167969 39.347656 239.15625 39.195312 239.136719 39.046875 L 239.136719 38.070312 Z M 203.878906 39.503906 L 203.878906 28.03125 C 214.09375 25.535156 223.597656 20.710938 231.648438 13.9375 L 231.65625 37.15625 C 231.636719 37.304688 231.628906 37.457031 231.628906 37.613281 L 231.628906 39.503906 C 231.628906 39.65625 231.640625 39.8125 231.65625 39.960938 L 231.648438 63.179688 C 223.597656 56.402344 214.09375 51.582031 203.878906 49.085938 Z M 184.65625 77.949219 C 184.65625 78.847656 183.921875 79.582031 183.023438 79.582031 L 182.136719 79.582031 C 181.234375 79.582031 180.503906 78.847656 180.503906 77.949219 L 180.503906 55.703125 L 184.65625 55.703125 Z M 174.347656 29.089844 L 196.355469 29.089844 L 196.355469 37.613281 C 196.355469 37.730469 196.359375 37.847656 196.371094 37.960938 L 196.371094 39.152344 C 196.359375 39.269531 196.355469 39.382812 196.355469 39.503906 L 196.355469 48.164062 L 174.347656 48.164062 C 169.09375 48.164062 164.816406 43.886719 164.816406 38.628906 C 164.816406 33.367188 169.09375 29.089844 174.347656 29.089844 Z M 174.347656 29.089844 " fill-opacity="1" fill-rule="nonzero"/></g><path fill="#ffffff" d="M 45.058594 220.046875 L 37.714844 221.613281 C 38.167969 223.746094 38.675781 225.894531 39.21875 228.003906 L 46.492188 226.121094 C 45.972656 224.117188 45.492188 222.074219 45.058594 220.046875 Z M 45.058594 220.046875 " fill-opacity="1" fill-rule="nonzero"/><path fill="#ffffff" d="M 55.578125 251.398438 L 48.777344 254.582031 C 49.703125 256.554688 50.679688 258.535156 51.6875 260.46875 L 58.34375 256.996094 C 57.386719 255.15625 56.457031 253.273438 55.578125 251.398438 Z M 55.578125 251.398438 " fill-opacity="1" fill-rule="nonzero"/><path fill="#ffffff" d="M 47.769531 230.753906 L 40.5625 232.871094 C 41.179688 234.964844 41.847656 237.070312 42.550781 239.128906 L 49.65625 236.703125 C 48.988281 234.742188 48.351562 232.742188 47.769531 230.753906 Z M 47.769531 230.753906 " fill-opacity="1" fill-rule="nonzero"/><path fill="#ffffff" d="M 51.28125 241.222656 L 44.257812 243.882812 C 45.03125 245.921875 45.855469 247.96875 46.714844 249.972656 L 53.617188 247.011719 C 52.800781 245.109375 52.015625 243.160156 51.28125 241.222656 Z M 51.28125 241.222656 " fill-opacity="1" fill-rule="nonzero"/><path fill="#ffffff" d="M 66.414062 270.632812 L 60.171875 274.804688 C 61.378906 276.617188 62.644531 278.425781 63.929688 280.1875 L 69.992188 275.75 C 68.769531 274.078125 67.566406 272.355469 66.414062 270.632812 Z M 66.414062 270.632812 " fill-opacity="1" fill-rule="nonzero"/><path fill="#ffffff" d="M 72.886719 279.582031 L 66.972656 284.214844 C 68.3125 285.929688 69.710938 287.640625 71.125 289.296875 L 76.835938 284.421875 C 75.492188 282.84375 74.164062 281.214844 72.886719 279.582031 Z M 72.886719 279.582031 " fill-opacity="1" fill-rule="nonzero"/><path fill="#ffffff" d="M 60.632812 261.21875 L 54.09375 264.910156 C 55.160156 266.804688 56.285156 268.707031 57.433594 270.558594 L 63.8125 266.59375 C 62.71875 264.832031 61.652344 263.023438 60.632812 261.21875 Z M 60.632812 261.21875 " fill-opacity="1" fill-rule="nonzero"/><path fill="#ffffff" d="M 43.871094 213.808594 L 64.410156 213.808594 C 71.269531 213.808594 76.847656 208.226562 76.847656 201.363281 L 76.847656 149.355469 C 76.847656 142.492188 71.269531 136.910156 64.410156 136.910156 L 49.933594 136.910156 L 44.253906 134.761719 C 43.988281 135.472656 43.722656 136.191406 43.460938 136.910156 L 12.433594 136.910156 C 5.578125 136.910156 -0.00390625 142.492188 -0.00390625 149.355469 L -0.00390625 201.363281 C -0.00390625 208.226562 5.578125 213.808594 12.433594 213.808594 L 36.261719 213.808594 C 36.414062 214.753906 36.574219 215.707031 36.742188 216.644531 L 44.132812 215.320312 C 44.042969 214.820312 43.957031 214.316406 43.871094 213.808594 Z M 12.433594 206.292969 C 9.71875 206.292969 7.507812 204.082031 7.507812 201.363281 L 7.507812 149.355469 C 7.507812 146.636719 9.71875 144.425781 12.433594 144.425781 L 64.410156 144.425781 C 67.128906 144.425781 69.339844 146.636719 69.339844 149.355469 L 69.339844 149.457031 L 69.152344 149.457031 L 69.152344 155.308594 L 69.339844 155.308594 L 69.339844 195.808594 L 69.152344 195.808594 L 69.152344 201.664062 L 69.328125 201.664062 C 69.171875 204.242188 67.027344 206.292969 64.410156 206.292969 Z M 12.433594 206.292969 " fill-opacity="1" fill-rule="nonzero"/><path fill="#ffffff" d="M 188.371094 335.941406 C 187.46875 335.941406 186.558594 335.933594 185.660156 335.917969 L 185.523438 343.433594 C 186.464844 343.449219 187.425781 343.457031 188.371094 343.457031 C 189.625 343.457031 190.894531 343.441406 192.140625 343.414062 L 191.960938 335.898438 C 190.773438 335.929688 189.566406 335.941406 188.371094 335.941406 Z M 188.371094 335.941406 " fill-opacity="1" fill-rule="nonzero"/><path fill="#ffffff" d="M 218.871094 332.761719 L 220.425781 340.113281 C 222.574219 339.660156 224.742188 339.152344 226.871094 338.601562 L 225 331.324219 C 222.976562 331.847656 220.914062 332.332031 218.871094 332.761719 Z M 218.871094 332.761719 " fill-opacity="1" fill-rule="nonzero"/><path fill="#ffffff" d="M 207.894531 334.652344 L 208.882812 342.101562 C 211.0625 341.8125 213.261719 341.46875 215.425781 341.085938 L 214.117188 333.6875 C 212.058594 334.054688 209.964844 334.375 207.894531 334.652344 Z M 207.894531 334.652344 " fill-opacity="1" fill-rule="nonzero"/><path fill="#ffffff" d="M 162.222656 341.246094 C 164.382812 341.613281 166.589844 341.945312 168.769531 342.222656 L 169.714844 334.765625 C 167.640625 334.503906 165.542969 334.191406 163.488281 333.839844 Z M 162.222656 341.246094 " fill-opacity="1" fill-rule="nonzero"/><path fill="#ffffff" d="M 173.832031 342.777344 C 176.019531 342.984375 178.238281 343.144531 180.433594 343.253906 L 180.816406 335.75 C 178.726562 335.644531 176.613281 335.492188 174.535156 335.296875 Z M 173.832031 342.777344 " fill-opacity="1" fill-rule="nonzero"/><path fill="#ffffff" d="M 150.761719 338.828125 C 152.890625 339.363281 155.0625 339.859375 157.214844 340.300781 L 158.726562 332.941406 C 156.679688 332.519531 154.613281 332.046875 152.585938 331.539062 Z M 150.761719 338.828125 " fill-opacity="1" fill-rule="nonzero"/><path fill="#ffffff" d="M 196.804688 335.703125 L 197.226562 343.207031 C 199.421875 343.082031 201.640625 342.910156 203.824219 342.691406 L 203.082031 335.214844 C 201.003906 335.421875 198.890625 335.585938 196.804688 335.703125 Z M 196.804688 335.703125 " fill-opacity="1" fill-rule="nonzero"/><path fill="#ffffff" d="M 139.515625 335.542969 C 141.601562 336.238281 143.726562 336.902344 145.839844 337.507812 L 147.910156 330.28125 C 145.902344 329.707031 143.878906 329.078125 141.894531 328.417969 Z M 139.515625 335.542969 " fill-opacity="1" fill-rule="nonzero"/><g clip-path="url(#cad5891cfe)"><path fill="#ffffff" d="M 135.554688 305.199219 C 135.554688 304.316406 135.207031 303.472656 134.582031 302.851562 L 119.292969 287.554688 C 119.246094 287.503906 119.191406 287.457031 119.140625 287.414062 C 119.128906 287.398438 119.113281 287.386719 119.101562 287.375 C 119.050781 287.332031 119 287.292969 118.945312 287.253906 C 118.9375 287.246094 118.933594 287.242188 118.925781 287.238281 C 118.871094 287.195312 118.8125 287.15625 118.75 287.117188 C 118.734375 287.105469 118.714844 287.09375 118.699219 287.082031 C 118.644531 287.050781 118.589844 287.015625 118.535156 286.988281 C 118.527344 286.984375 118.519531 286.976562 118.511719 286.972656 C 118.453125 286.941406 118.386719 286.910156 118.324219 286.882812 C 118.308594 286.875 118.289062 286.867188 118.269531 286.859375 C 118.210938 286.832031 118.148438 286.808594 118.089844 286.785156 C 118.082031 286.78125 118.078125 286.78125 118.070312 286.777344 C 118.003906 286.753906 117.9375 286.734375 117.871094 286.714844 C 117.851562 286.707031 117.835938 286.703125 117.816406 286.699219 C 117.753906 286.679688 117.6875 286.664062 117.625 286.652344 C 117.617188 286.652344 117.613281 286.648438 117.609375 286.648438 C 117.539062 286.632812 117.46875 286.621094 117.398438 286.613281 C 117.378906 286.609375 117.359375 286.609375 117.34375 286.605469 C 117.28125 286.597656 117.21875 286.59375 117.15625 286.589844 C 117.144531 286.589844 117.136719 286.585938 117.125 286.585938 C 117.066406 286.585938 117.007812 286.582031 116.953125 286.582031 L 77.875 286.582031 C 76.042969 286.582031 74.558594 288.066406 74.558594 289.902344 L 74.558594 293 L 74.460938 293.085938 C 74.492188 293.121094 74.527344 293.15625 74.558594 293.1875 L 74.558594 358.128906 C 74.558594 359.960938 76.042969 361.445312 77.875 361.445312 L 132.238281 361.445312 C 134.070312 361.445312 135.554688 359.960938 135.554688 358.128906 L 135.554688 331.585938 L 137.332031 326.804688 C 136.742188 326.585938 136.148438 326.359375 135.554688 326.128906 Z M 120.265625 297.964844 L 123.484375 301.214844 L 120.265625 301.214844 Z M 128.921875 354.8125 L 81.1875 354.8125 L 81.1875 293.21875 L 113.636719 293.21875 L 113.636719 304.535156 C 113.636719 306.367188 115.121094 307.851562 116.949219 307.851562 L 128.921875 307.851562 Z M 128.921875 354.8125 " fill-opacity="1" fill-rule="nonzero"/></g><path fill="#ffffff" d="M 324.410156 243.914062 L 331.378906 246.714844 C 332.21875 244.628906 333.019531 242.492188 333.761719 240.371094 L 326.675781 237.882812 C 325.96875 239.898438 325.207031 241.929688 324.410156 243.914062 Z M 324.410156 243.914062 " fill-opacity="1" fill-rule="nonzero"/><path fill="#ffffff" d="M 314.300781 264.335938 L 320.746094 268.1875 C 321.902344 266.253906 323.023438 264.269531 324.089844 262.292969 L 317.476562 258.730469 C 316.464844 260.613281 315.398438 262.5 314.300781 264.335938 Z M 314.300781 264.335938 " fill-opacity="1" fill-rule="nonzero"/><path fill="#ffffff" d="M 319.753906 254.324219 L 326.484375 257.660156 C 327.480469 255.644531 328.449219 253.578125 329.355469 251.523438 L 322.484375 248.488281 C 321.621094 250.441406 320.703125 252.40625 319.753906 254.324219 Z M 319.753906 254.324219 " fill-opacity="1" fill-rule="nonzero"/><path fill="#ffffff" d="M 328.238281 233.175781 L 335.402344 235.417969 C 336.074219 233.273438 336.707031 231.082031 337.285156 228.90625 L 330.027344 226.980469 C 329.476562 229.050781 328.875 231.132812 328.238281 233.175781 Z M 328.238281 233.175781 " fill-opacity="1" fill-rule="nonzero"/><path fill="#ffffff" d="M 339.898438 217.207031 L 332.511719 215.855469 C 332.128906 217.960938 331.691406 220.082031 331.214844 222.167969 L 338.535156 223.84375 C 339.035156 221.652344 339.496094 219.417969 339.898438 217.207031 Z M 339.898438 217.207031 " fill-opacity="1" fill-rule="nonzero"/><path fill="#ffffff" d="M 308.082031 273.894531 L 314.214844 278.234375 C 315.511719 276.398438 316.789062 274.511719 318.003906 272.621094 L 311.6875 268.554688 C 310.53125 270.351562 309.320312 272.148438 308.082031 273.894531 Z M 308.082031 273.894531 " fill-opacity="1" fill-rule="nonzero"/><path fill="#ffffff" d="M 301.144531 282.945312 L 306.921875 287.746094 C 308.359375 286.015625 309.777344 284.230469 311.132812 282.441406 L 305.152344 277.894531 C 303.859375 279.597656 302.511719 281.296875 301.144531 282.945312 Z M 301.144531 282.945312 " fill-opacity="1" fill-rule="nonzero"/><path fill="#ffffff" d="M 293.527344 291.429688 L 298.917969 296.664062 C 300.484375 295.050781 302.035156 293.378906 303.527344 291.699219 L 297.914062 286.707031 C 296.492188 288.304688 295.019531 289.894531 293.527344 291.429688 Z M 293.527344 291.429688 " fill-opacity="1" fill-rule="nonzero"/><path fill="#ffffff" d="M 267.664062 57.144531 C 266.738281 56.585938 265.796875 56.03125 264.863281 55.496094 L 261.128906 62.015625 C 262.019531 62.527344 262.914062 63.050781 263.792969 63.582031 Z M 267.664062 57.144531 " fill-opacity="1" fill-rule="nonzero"/><path fill="#ffffff" d="M 312.683594 111.652344 L 319.050781 107.667969 C 317.84375 105.738281 316.578125 103.8125 315.289062 101.9375 L 309.105469 106.203125 C 310.332031 107.984375 311.535156 109.820312 312.683594 111.652344 Z M 312.683594 111.652344 " fill-opacity="1" fill-rule="nonzero"/><path fill="#ffffff" d="M 318.40625 121.660156 L 325.066406 118.1875 C 324.019531 116.171875 322.90625 114.152344 321.769531 112.183594 L 315.269531 115.949219 C 316.351562 117.824219 317.410156 119.742188 318.40625 121.660156 Z M 318.40625 121.660156 " fill-opacity="1" fill-rule="nonzero"/><path fill="#ffffff" d="M 306.191406 102.125 L 312.226562 97.652344 C 310.871094 95.824219 309.460938 94.003906 308.027344 92.238281 L 302.195312 96.972656 C 303.5625 98.652344 304.90625 100.386719 306.191406 102.125 Z M 306.191406 102.125 " fill-opacity="1" fill-rule="nonzero"/><path fill="#ffffff" d="M 323.324219 132.089844 L 330.234375 129.152344 C 329.347656 127.0625 328.402344 124.960938 327.417969 122.90625 L 320.644531 126.148438 C 321.578125 128.097656 322.480469 130.097656 323.324219 132.089844 Z M 323.324219 132.089844 " fill-opacity="1" fill-rule="nonzero"/><path fill="#ffffff" d="M 282.539062 76.976562 L 287.371094 71.222656 C 285.628906 69.757812 283.832031 68.316406 282.027344 66.933594 L 277.457031 72.894531 C 279.175781 74.210938 280.882812 75.585938 282.539062 76.976562 Z M 282.539062 76.976562 " fill-opacity="1" fill-rule="nonzero"/><path fill="#ffffff" d="M 291.074219 84.734375 L 296.335938 79.375 C 294.714844 77.78125 293.035156 76.199219 291.347656 74.679688 L 286.324219 80.265625 C 287.933594 81.714844 289.53125 83.214844 291.074219 84.734375 Z M 291.074219 84.734375 " fill-opacity="1" fill-rule="nonzero"/><path fill="#ffffff" d="M 277.792969 63.796875 C 275.945312 62.472656 274.039062 61.175781 272.132812 59.9375 L 268.042969 66.238281 C 269.855469 67.417969 271.667969 68.652344 273.429688 69.910156 Z M 277.792969 63.796875 " fill-opacity="1" fill-rule="nonzero"/><path fill="#ffffff" d="M 298.972656 93.132812 L 304.636719 88.199219 C 303.144531 86.484375 301.59375 84.78125 300.027344 83.132812 L 294.585938 88.308594 C 296.078125 89.878906 297.554688 91.5 298.972656 93.132812 Z M 298.972656 93.132812 " fill-opacity="1" fill-rule="nonzero"/><path fill="#ffffff" d="M 228.511719 168.855469 C 229.582031 167.886719 229.929688 166.347656 229.375 165.015625 L 225.933594 156.699219 C 225.382812 155.363281 224.050781 154.523438 222.605469 154.597656 L 213.410156 155.066406 L 210.546875 152.199219 L 211.015625 142.996094 C 211.089844 141.554688 210.246094 140.222656 208.914062 139.667969 L 200.605469 136.222656 C 199.269531 135.671875 197.730469 136.019531 196.765625 137.089844 L 190.59375 143.929688 L 186.542969 143.929688 L 180.371094 137.089844 C 179.402344 136.019531 177.867188 135.671875 176.53125 136.222656 L 168.222656 139.667969 C 166.886719 140.222656 166.046875 141.554688 166.121094 142.996094 L 166.589844 152.199219 L 163.726562 155.066406 L 154.527344 154.597656 C 153.085938 154.523438 151.753906 155.363281 151.203125 156.699219 L 147.757812 165.015625 C 147.207031 166.347656 147.554688 167.886719 148.625 168.855469 L 155.460938 175.03125 L 155.460938 179.085938 L 148.625 185.257812 C 147.554688 186.226562 147.207031 187.765625 147.757812 189.101562 L 151.203125 197.414062 C 151.753906 198.75 153.085938 199.59375 154.527344 199.519531 L 163.726562 199.050781 L 166.589844 201.914062 L 166.121094 211.117188 C 166.046875 212.5625 166.886719 213.894531 168.222656 214.449219 L 176.53125 217.890625 C 177.867188 218.445312 179.402344 218.097656 180.371094 217.023438 L 186.542969 210.1875 L 190.59375 210.1875 L 196.765625 217.023438 C 197.425781 217.757812 198.351562 218.152344 199.296875 218.152344 C 199.738281 218.152344 200.179688 218.066406 200.605469 217.890625 L 208.914062 214.449219 C 210.246094 213.894531 211.089844 212.5625 211.015625 211.117188 L 210.546875 201.914062 L 213.410156 199.050781 L 222.605469 199.519531 C 224.050781 199.59375 225.382812 198.75 225.933594 197.414062 L 229.375 189.101562 C 229.929688 187.765625 229.582031 186.226562 228.511719 185.257812 L 221.675781 179.085938 L 221.675781 175.03125 Z M 215.972656 183.136719 L 222.148438 188.714844 L 220.550781 192.574219 L 212.242188 192.152344 C 211.277344 192.101562 210.335938 192.464844 209.65625 193.148438 L 204.644531 198.160156 C 203.960938 198.84375 203.601562 199.785156 203.648438 200.75 L 204.074219 209.0625 L 200.214844 210.660156 L 194.640625 204.484375 C 193.996094 203.765625 193.074219 203.355469 192.109375 203.355469 L 185.023438 203.355469 C 184.058594 203.355469 183.136719 203.765625 182.488281 204.484375 L 176.914062 210.660156 L 173.058594 209.0625 L 173.480469 200.75 C 173.53125 199.785156 173.167969 198.84375 172.484375 198.160156 L 167.476562 193.148438 C 166.792969 192.464844 165.851562 192.101562 164.886719 192.152344 L 156.582031 192.574219 L 154.984375 188.714844 L 161.15625 183.140625 C 161.875 182.492188 162.285156 181.570312 162.285156 180.605469 L 162.285156 173.515625 C 162.285156 172.546875 161.875 171.628906 161.15625 170.980469 L 154.984375 165.402344 L 156.582031 161.542969 L 164.886719 161.964844 C 165.851562 162.015625 166.792969 161.652344 167.476562 160.96875 L 172.484375 155.957031 C 173.167969 155.273438 173.53125 154.332031 173.480469 153.367188 L 173.058594 145.054688 L 176.914062 143.457031 L 182.488281 149.632812 C 183.136719 150.351562 184.058594 150.761719 185.023438 150.761719 L 192.109375 150.761719 C 193.074219 150.761719 193.996094 150.351562 194.640625 149.632812 L 200.214844 143.457031 L 204.074219 145.054688 L 203.648438 153.367188 C 203.597656 154.332031 203.960938 155.273438 204.644531 155.957031 L 209.652344 160.96875 C 210.335938 161.652344 211.277344 162.015625 212.242188 161.964844 L 220.546875 161.542969 L 222.144531 165.402344 L 215.972656 170.980469 C 215.257812 171.628906 214.847656 172.546875 214.847656 173.515625 L 214.847656 180.605469 C 214.847656 181.570312 215.257812 182.492188 215.972656 183.136719 Z M 215.972656 183.136719 " fill-opacity="1" fill-rule="nonzero"/><path fill="#ffffff" d="M 188.566406 158.257812 C 178.207031 158.257812 169.78125 166.691406 169.78125 177.058594 C 169.78125 187.425781 178.207031 195.855469 188.566406 195.855469 C 198.925781 195.855469 207.351562 187.421875 207.351562 177.058594 C 207.351562 166.691406 198.925781 158.257812 188.566406 158.257812 Z M 188.566406 189.027344 C 181.972656 189.027344 176.605469 183.65625 176.605469 177.058594 C 176.605469 170.460938 181.972656 165.089844 188.566406 165.089844 C 195.164062 165.089844 200.527344 170.457031 200.527344 177.058594 C 200.527344 183.660156 195.160156 189.027344 188.566406 189.027344 Z M 188.566406 189.027344 " fill-opacity="1" fill-rule="nonzero"/></svg>