<svg xmlns="http://www.w3.org/2000/svg" xmlns:xlink="http://www.w3.org/1999/xlink" width="1080" zoomAndPan="magnify" viewBox="0 0 810 1439.999935" height="1920" preserveAspectRatio="xMidYMid meet" version="1.0"><defs><clipPath id="af66709614"><path d="M 3.75 0 L 803.25 0 L 803.25 799.5 L 3.75 799.5 Z M 3.75 0 " clip-rule="nonzero"/></clipPath></defs><g clip-path="url(#af66709614)"><path fill="#ffffff" d="M 803.179688 399.691406 C 803.179688 406.234375 803.019531 412.773438 802.699219 419.308594 C 802.378906 425.839844 801.898438 432.363281 801.257812 438.875 C 800.613281 445.382812 799.816406 451.875 798.855469 458.347656 C 797.894531 464.816406 796.777344 471.261719 795.5 477.675781 C 794.222656 484.09375 792.792969 490.476562 791.203125 496.820312 C 789.613281 503.167969 787.867188 509.46875 785.96875 515.730469 C 784.070312 521.992188 782.019531 528.199219 779.8125 534.359375 C 777.609375 540.519531 775.257812 546.621094 772.753906 552.664062 C 770.25 558.710938 767.597656 564.6875 764.800781 570.601562 C 762.003906 576.515625 759.0625 582.359375 755.980469 588.128906 C 752.898438 593.898438 749.671875 599.589844 746.308594 605.199219 C 742.945312 610.8125 739.449219 616.335938 735.8125 621.777344 C 732.179688 627.214844 728.414062 632.5625 724.515625 637.816406 C 720.617188 643.070312 716.59375 648.226562 712.445312 653.285156 C 708.292969 658.339844 704.023438 663.292969 699.628906 668.140625 C 695.234375 672.988281 690.726562 677.722656 686.101562 682.351562 C 681.472656 686.976562 676.738281 691.484375 671.890625 695.878906 C 667.042969 700.273438 662.089844 704.542969 657.035156 708.695312 C 651.976562 712.84375 646.820312 716.867188 641.566406 720.765625 C 636.3125 724.664062 630.964844 728.429688 625.527344 732.0625 C 620.085938 735.699219 614.5625 739.195312 608.949219 742.558594 C 603.339844 745.921875 597.648438 749.148438 591.878906 752.230469 C 586.109375 755.3125 580.265625 758.253906 574.351562 761.050781 C 568.4375 763.847656 562.460938 766.5 556.414062 769.003906 C 550.371094 771.507812 544.269531 773.859375 538.109375 776.0625 C 531.949219 778.269531 525.742188 780.320312 519.480469 782.21875 C 513.21875 784.117188 506.917969 785.863281 500.570312 787.453125 C 494.226562 789.042969 487.84375 790.472656 481.429688 791.75 C 475.011719 793.027344 468.566406 794.144531 462.097656 795.105469 C 455.625 796.066406 449.132812 796.863281 442.625 797.507812 C 436.113281 798.148438 429.589844 798.628906 423.058594 798.949219 C 416.523438 799.269531 409.984375 799.429688 403.441406 799.429688 C 396.902344 799.429688 390.363281 799.269531 383.828125 798.949219 C 377.292969 798.628906 370.773438 798.148438 364.261719 797.507812 C 357.75 796.863281 351.261719 796.066406 344.789062 795.105469 C 338.316406 794.144531 331.875 793.027344 325.457031 791.75 C 319.042969 790.472656 312.660156 789.039062 306.3125 787.453125 C 299.96875 785.863281 293.664062 784.117188 287.40625 782.21875 C 281.144531 780.320312 274.933594 778.269531 268.773438 776.0625 C 262.613281 773.859375 256.511719 771.507812 250.46875 769.003906 C 244.425781 766.5 238.445312 763.847656 232.53125 761.050781 C 226.617188 758.253906 220.777344 755.3125 215.007812 752.230469 C 209.238281 749.148438 203.546875 745.921875 197.9375 742.558594 C 192.324219 739.195312 186.800781 735.699219 181.359375 732.0625 C 175.921875 728.429688 170.574219 724.664062 165.320312 720.765625 C 160.0625 716.867188 154.910156 712.84375 149.851562 708.695312 C 144.792969 704.542969 139.84375 700.273438 134.996094 695.878906 C 130.148438 691.484375 125.410156 686.976562 120.785156 682.351562 C 116.160156 677.722656 111.648438 672.988281 107.257812 668.140625 C 102.863281 663.292969 98.589844 658.339844 94.441406 653.285156 C 90.289062 648.226562 86.265625 643.070312 82.371094 637.816406 C 78.472656 632.5625 74.707031 627.214844 71.070312 621.777344 C 67.4375 616.335938 63.9375 610.8125 60.574219 605.199219 C 57.210938 599.589844 53.988281 593.898438 50.90625 588.128906 C 47.820312 582.359375 44.878906 576.515625 42.082031 570.601562 C 39.285156 564.6875 36.636719 558.710938 34.132812 552.664062 C 31.628906 546.621094 29.273438 540.519531 27.070312 534.359375 C 24.867188 528.199219 22.816406 521.992188 20.917969 515.730469 C 19.019531 509.46875 17.273438 503.167969 15.683594 496.820312 C 14.09375 490.476562 12.660156 484.09375 11.386719 477.675781 C 10.109375 471.261719 8.992188 464.816406 8.03125 458.347656 C 7.070312 451.875 6.269531 445.382812 5.628906 438.875 C 4.988281 432.363281 4.507812 425.839844 4.1875 419.308594 C 3.863281 412.773438 3.703125 406.234375 3.703125 399.691406 C 3.703125 393.152344 3.863281 386.613281 4.1875 380.078125 C 4.507812 373.542969 4.988281 367.023438 5.628906 360.511719 C 6.269531 354 7.070312 347.511719 8.03125 341.039062 C 8.992188 334.566406 10.109375 328.125 11.386719 321.707031 C 12.660156 315.292969 14.09375 308.910156 15.683594 302.5625 C 17.273438 296.21875 19.019531 289.914062 20.917969 283.65625 C 22.816406 277.394531 24.867188 271.183594 27.070312 265.023438 C 29.273438 258.863281 31.628906 252.761719 34.132812 246.71875 C 36.636719 240.675781 39.285156 234.695312 42.082031 228.78125 C 44.878906 222.867188 47.820312 217.027344 50.90625 211.257812 C 53.988281 205.488281 57.210938 199.796875 60.574219 194.1875 C 63.9375 188.574219 67.4375 183.050781 71.070312 177.609375 C 74.707031 172.171875 78.472656 166.824219 82.371094 161.570312 C 86.265625 156.3125 90.289062 151.160156 94.441406 146.101562 C 98.589844 141.042969 102.863281 136.09375 107.257812 131.246094 C 111.648438 126.398438 116.160156 121.660156 120.785156 117.035156 C 125.410156 112.410156 130.148438 107.898438 134.996094 103.507812 C 139.84375 99.113281 144.792969 94.839844 149.851562 90.691406 C 154.910156 86.539062 160.0625 82.515625 165.320312 78.621094 C 170.574219 74.722656 175.921875 70.957031 181.359375 67.320312 C 186.800781 63.6875 192.324219 60.1875 197.9375 56.824219 C 203.546875 53.460938 209.238281 50.238281 215.007812 47.15625 C 220.777344 44.070312 226.617188 41.128906 232.53125 38.332031 C 238.445312 35.535156 244.425781 32.886719 250.46875 30.382812 C 256.511719 27.878906 262.613281 25.523438 268.773438 23.320312 C 274.933594 21.117188 281.144531 19.066406 287.40625 17.167969 C 293.664062 15.269531 299.96875 13.523438 306.3125 11.933594 C 312.660156 10.34375 319.042969 8.910156 325.457031 7.636719 C 331.875 6.359375 338.316406 5.242188 344.789062 4.28125 C 351.261719 3.320312 357.75 2.519531 364.261719 1.878906 C 370.773438 1.238281 377.292969 0.757812 383.828125 0.4375 C 390.363281 0.113281 396.902344 -0.046875 403.441406 -0.046875 C 409.984375 -0.046875 416.523438 0.113281 423.058594 0.4375 C 429.589844 0.757812 436.113281 1.238281 442.625 1.878906 C 449.132812 2.519531 455.625 3.320312 462.097656 4.28125 C 468.566406 5.242188 475.011719 6.359375 481.429688 7.636719 C 487.84375 8.910156 494.226562 10.34375 500.570312 11.933594 C 506.917969 13.523438 513.21875 15.269531 519.480469 17.167969 C 525.742188 19.066406 531.949219 21.117188 538.109375 23.320312 C 544.269531 25.523438 550.371094 27.878906 556.414062 30.382812 C 562.460938 32.886719 568.4375 35.535156 574.351562 38.332031 C 580.265625 41.128906 586.109375 44.070312 591.878906 47.15625 C 597.648438 50.238281 603.339844 53.460938 608.949219 56.824219 C 614.5625 60.1875 620.085938 63.6875 625.527344 67.320312 C 630.964844 70.957031 636.3125 74.722656 641.566406 78.621094 C 646.820312 82.515625 651.976562 86.539062 657.035156 90.691406 C 662.089844 94.839844 667.042969 99.113281 671.890625 103.507812 C 676.738281 107.898438 681.472656 112.410156 686.101562 117.035156 C 690.726562 121.660156 695.234375 126.398438 699.628906 131.246094 C 704.023438 136.09375 708.292969 141.042969 712.445312 146.101562 C 716.59375 151.160156 720.617188 156.3125 724.515625 161.570312 C 728.414062 166.824219 732.179688 172.171875 735.8125 177.609375 C 739.449219 183.050781 742.945312 188.574219 746.308594 194.1875 C 749.671875 199.796875 752.898438 205.488281 755.980469 211.257812 C 759.0625 217.027344 762.003906 222.867188 764.800781 228.78125 C 767.597656 234.695312 770.25 240.675781 772.753906 246.71875 C 775.257812 252.761719 777.609375 258.863281 779.8125 265.023438 C 782.019531 271.183594 784.070312 277.394531 785.96875 283.65625 C 787.867188 289.914062 789.613281 296.21875 791.203125 302.5625 C 792.792969 308.910156 794.222656 315.292969 795.5 321.707031 C 796.777344 328.125 797.894531 334.566406 798.855469 341.039062 C 799.816406 347.511719 800.613281 354 801.257812 360.511719 C 801.898438 367.023438 802.378906 373.542969 802.699219 380.078125 C 803.019531 386.613281 803.179688 393.152344 803.179688 399.691406 Z M 803.179688 399.691406 " fill-opacity="1" fill-rule="nonzero"/></g><path fill="#000000" d="M 403.441406 104.414062 C 240.363281 104.414062 108.164062 236.617188 108.164062 399.691406 C 108.164062 458.84375 125.566406 513.921875 155.519531 560.113281 L 123.488281 679.644531 L 243.023438 647.617188 C 289.210938 677.566406 344.292969 694.96875 403.441406 694.96875 C 566.519531 694.96875 698.722656 562.769531 698.722656 399.691406 C 698.722656 236.613281 566.519531 104.414062 403.441406 104.414062 Z M 403.441406 104.414062 " fill-opacity="1" fill-rule="nonzero"/><path fill="#ffffff" d="M 570.066406 493.414062 C 569.953125 482.1875 563.109375 472.316406 552.636719 468.265625 L 487.71875 443.164062 C 477.394531 439.167969 465.664062 441.648438 457.839844 449.476562 L 441.328125 465.988281 C 440.507812 466.804688 439.261719 467.015625 438.285156 466.503906 C 409.683594 451.40625 351.730469 393.453125 336.632812 364.847656 C 336.117188 363.875 336.328125 362.625 337.144531 361.808594 L 353.660156 345.296875 C 361.484375 337.46875 363.964844 325.742188 359.972656 315.417969 L 334.871094 250.5 C 330.820312 240.027344 320.949219 233.183594 309.71875 233.066406 L 302.136719 232.988281 C 287.113281 232.839844 272.566406 239.742188 263.300781 251.46875 C 248.992188 269.582031 232.90625 296.847656 237.550781 323.898438 C 239.898438 337.558594 250.597656 359.164062 270.257812 389.953125 C 306.699219 447.011719 356.121094 496.433594 413.179688 532.875 C 443.96875 552.535156 465.574219 563.234375 479.234375 565.582031 C 482.476562 566.136719 485.71875 566.394531 488.953125 566.394531 C 512.6875 566.394531 535.722656 552.425781 551.664062 539.832031 C 563.390625 530.566406 570.300781 516.046875 570.144531 500.996094 Z M 570.066406 493.414062 " fill-opacity="1" fill-rule="nonzero"/></svg>