<svg xmlns="http://www.w3.org/2000/svg" xmlns:xlink="http://www.w3.org/1999/xlink" width="1080" zoomAndPan="magnify" viewBox="0 0 810 1439.999935" height="1920" preserveAspectRatio="xMidYMid meet" version="1.0"><defs><clipPath id="d4b9623974"><path d="M 0 0 L 810 0 L 810 636.75 L 0 636.75 Z M 0 0 " clip-rule="nonzero"/></clipPath></defs><g clip-path="url(#d4b9623974)"><path fill="#ffffff" d="M 696.019531 58.0625 L 113.980469 58.0625 L 387.363281 268.320312 C 397.757812 276.316406 412.238281 276.316406 422.636719 268.320312 Z M 57.855469 87.878906 L 57.855469 578.6875 L 752.144531 578.6875 L 752.144531 87.878906 L 457.914062 314.167969 C 426.714844 338.160156 383.28125 338.160156 352.082031 314.167969 Z M 0 58.0625 C 0 26.113281 25.902344 0.214844 57.855469 0.214844 L 752.144531 0.214844 C 784.097656 0.214844 810 26.113281 810 58.0625 L 810 578.6875 C 810 610.636719 784.097656 636.535156 752.144531 636.535156 L 57.855469 636.535156 C 25.902344 636.535156 0 610.636719 0 578.6875 Z M 0 58.0625 " fill-opacity="1" fill-rule="evenodd"/></g></svg>