<svg xmlns="http://www.w3.org/2000/svg" xmlns:xlink="http://www.w3.org/1999/xlink" width="500" zoomAndPan="magnify" viewBox="0 0 375 374.999991" height="500" preserveAspectRatio="xMidYMid meet" version="1.0"><defs><filter x="0%" y="0%" width="100%" height="100%" id="a9027e8bbd"><feColorMatrix values="0 0 0 0 1 0 0 0 0 1 0 0 0 0 1 0 0 0 1 0" color-interpolation-filters="sRGB"/></filter><g/><clipPath id="f129a9a2c0"><path d="M 59.480469 59.011719 L 315.230469 59.011719 L 315.230469 316.261719 L 59.480469 316.261719 Z M 59.480469 59.011719 " clip-rule="nonzero"/></clipPath><mask id="9bd27f5522"><g filter="url(#a9027e8bbd)"><rect x="-37.5" width="450" fill="#000000" y="-37.499999" height="449.999989" fill-opacity="0.92"/></g></mask><clipPath id="f9eba9f378"><rect x="0" width="370" y="0" height="67"/></clipPath></defs><g clip-path="url(#f129a9a2c0)"><path fill="#ffffff" d="M 315.136719 177.746094 C 315.140625 177.652344 315.121094 177.5625 315.09375 177.476562 C 315.09375 177.472656 315.09375 177.46875 315.09375 177.460938 L 289.605469 110.375 C 289.601562 110.367188 289.59375 110.363281 289.589844 110.355469 C 289.546875 110.253906 289.488281 110.160156 289.398438 110.089844 L 233.347656 65.402344 C 233.261719 65.332031 233.15625 65.277344 233.039062 65.257812 C 233.027344 65.257812 233.019531 65.257812 233.011719 65.257812 L 187.261719 59.019531 C 187.171875 59.007812 187.078125 59.015625 186.988281 59.039062 L 165.1875 65.25 L 164.566406 65.25 C 164.441406 65.25 164.324219 65.285156 164.21875 65.347656 L 163.664062 65.683594 L 109.996094 80.972656 C 109.976562 80.976562 109.964844 80.992188 109.949219 80.996094 C 109.878906 81.023438 109.8125 81.0625 109.753906 81.113281 C 109.730469 81.132812 109.707031 81.152344 109.683594 81.171875 C 109.671875 81.1875 109.65625 81.191406 109.644531 81.207031 L 62.648438 142.359375 C 62.632812 142.378906 62.628906 142.398438 62.617188 142.421875 C 62.601562 142.449219 62.582031 142.472656 62.570312 142.5 C 62.5625 142.519531 62.558594 142.539062 62.550781 142.558594 C 62.539062 142.59375 62.53125 142.632812 62.527344 142.667969 C 62.523438 142.691406 62.511719 142.710938 62.511719 142.734375 L 59.550781 196.515625 C 59.550781 196.5625 59.550781 196.609375 59.558594 196.65625 L 63.890625 223.859375 C 63.898438 223.894531 63.914062 223.921875 63.925781 223.957031 C 63.933594 223.980469 63.933594 224.003906 63.941406 224.027344 C 63.945312 224.03125 63.949219 224.035156 63.953125 224.042969 C 63.953125 224.050781 63.953125 224.058594 63.957031 224.066406 L 85.839844 265.839844 C 85.878906 265.910156 85.929688 265.976562 85.988281 266.03125 L 111.652344 288.773438 C 111.695312 288.820312 111.738281 288.859375 111.789062 288.894531 L 141.46875 308.941406 C 141.550781 308.996094 141.640625 309.03125 141.738281 309.046875 L 188.296875 316.304688 L 188.304688 316.304688 C 188.308594 316.304688 188.308594 316.308594 188.3125 316.308594 C 188.347656 316.3125 188.382812 316.316406 188.417969 316.316406 C 188.464844 316.316406 188.511719 316.308594 188.554688 316.300781 C 188.554688 316.300781 188.558594 316.300781 188.558594 316.296875 C 188.558594 316.296875 188.5625 316.296875 188.5625 316.296875 C 188.5625 316.296875 188.566406 316.296875 188.566406 316.296875 C 188.570312 316.296875 188.574219 316.296875 188.578125 316.292969 C 188.578125 316.296875 188.582031 316.292969 188.582031 316.292969 L 188.585938 316.292969 C 188.585938 316.292969 188.585938 316.289062 188.589844 316.289062 C 188.589844 316.289062 188.589844 316.289062 188.59375 316.289062 C 188.59375 316.292969 188.59375 316.289062 188.59375 316.289062 C 188.597656 316.289062 188.597656 316.289062 188.601562 316.285156 L 264.683594 294 C 264.710938 293.992188 264.726562 293.964844 264.75 293.953125 C 264.824219 293.917969 264.882812 293.875 264.941406 293.820312 C 264.964844 293.796875 265.003906 293.789062 265.027344 293.761719 L 311.3125 232.574219 C 311.386719 232.476562 311.417969 232.367188 311.433594 232.253906 C 311.433594 232.238281 311.445312 232.230469 311.449219 232.214844 Z M 310.144531 231.636719 L 290.128906 236.710938 L 313.527344 181.621094 Z M 228.917969 223.832031 L 155.152344 197.816406 L 210.785156 157.660156 Z M 210.789062 155.492188 L 155.3125 119.121094 L 227.441406 98.4375 Z M 209.996094 156.578125 L 154.390625 196.714844 L 154.390625 120.121094 Z M 153.050781 196.945312 L 89.945312 165.902344 L 153.050781 120.195312 Z M 166.714844 271.378906 L 106.5625 237.589844 L 153.269531 199.265625 Z M 154.59375 199.046875 L 228.511719 225.117188 L 168.097656 271.46875 Z M 229.320312 226.1875 L 233.21875 281.613281 L 169.304688 272.230469 Z M 230.179688 223.367188 L 212.082031 157.316406 L 273.625 163.480469 Z M 274.484375 164.582031 L 288.132812 236.824219 L 231.050781 224.457031 Z M 289.226562 235.394531 L 275.734375 163.976562 L 313.574219 178.085938 Z M 274.578125 161.382812 L 229.976562 98.480469 L 288.148438 111.125 Z M 273.457031 162.117188 L 212.046875 155.964844 L 228.683594 98.972656 Z M 154.597656 117.929688 L 165.046875 66.910156 L 226.574219 97.289062 Z M 153.214844 118 L 106.019531 102.183594 L 163.601562 67.292969 Z M 152.269531 119.101562 L 89.742188 164.390625 L 104.90625 103.226562 Z M 88.269531 164.753906 L 64.15625 142.753906 L 103.210938 104.496094 Z M 103.835938 102.007812 L 69.519531 135.617188 L 108.613281 84.753906 Z M 87.847656 166.1875 L 65.167969 220.535156 L 63.875 144.3125 Z M 88.46875 168.183594 L 104.445312 236.667969 L 65.445312 223.347656 Z M 89.625 167.238281 L 152.488281 198.167969 L 105.785156 236.492188 Z M 165.898438 272.457031 L 112.71875 287.472656 L 106.21875 238.9375 Z M 167.28125 273.464844 L 187.097656 314.457031 L 114.359375 288.40625 Z M 188.667969 314.625 L 168.792969 273.515625 L 232.222656 282.828125 Z M 234.523438 281.066406 L 230.636719 225.738281 L 287.472656 238.054688 Z M 287.25 239.964844 L 264.136719 292.511719 L 235.292969 282.167969 Z M 289.460938 238.265625 L 309.09375 233.289062 L 267.414062 288.386719 Z M 275.660156 162.515625 L 289.089844 112.789062 L 313.3125 176.554688 Z M 233.421875 67.175781 L 286.316406 109.351562 L 229.179688 96.929688 Z M 187.222656 60.371094 L 223.027344 65.25 L 170.085938 65.25 Z M 232.152344 66.59375 L 227.894531 96.441406 L 167.441406 66.59375 Z M 105.53125 100.910156 L 110.722656 82.160156 L 159.3125 68.320312 Z M 60.890625 196.515625 L 62.824219 161.402344 L 63.71875 214.277344 Z M 86.96875 265.105469 L 69.210938 231.203125 L 107.84375 283.609375 Z M 66.363281 225.082031 L 104.765625 238.195312 L 111.144531 285.828125 Z M 116.9375 290.753906 L 181.527344 313.886719 L 142.089844 307.738281 Z M 234.054688 283.152344 L 262.328125 293.292969 L 191.914062 313.917969 Z M 234.054688 283.152344 " fill-opacity="1" fill-rule="nonzero"/></g><g mask="url(#9bd27f5522)"><g transform="matrix(1, 0, 0, 1, 5, 154)"><g clip-path="url(#f9eba9f378)"><g fill="#ffffff" fill-opacity="1"><g transform="translate(0.734662, 54.874986)"><g><path d="M 11 -43.996094 C 6.160156 -43.996094 2.199219 -40.039062 2.199219 -35.199219 L 2.199219 0 L 11 0 L 11 -17.597656 L 37.398438 -17.597656 L 37.398438 0 L 46.199219 0 L 46.199219 -35.199219 C 46.199219 -40.039062 42.238281 -43.996094 37.398438 -43.996094 Z M 11 -35.199219 L 37.398438 -35.199219 L 37.398438 -26.398438 L 11 -26.398438 Z M 11 -35.199219 "/></g></g></g><g fill="#ffffff" fill-opacity="1"><g transform="translate(53.256151, 54.874986)"><g><path d="M 24.199219 0 C 26.125 0 28.105469 -0.714844 29.699219 -2.089844 L 44.546875 -14.847656 C 45.59375 -15.785156 46.144531 -16.9375 46.144531 -18.371094 L 46.199219 -43.996094 L 37.398438 -43.996094 L 37.398438 -20.347656 L 24.199219 -8.964844 L 11 -20.347656 L 11 -43.996094 L 2.199219 -43.996094 L 2.199219 -18.371094 C 2.199219 -16.996094 2.804688 -15.785156 3.851562 -14.847656 L 18.699219 -2.089844 C 20.347656 -0.714844 22.273438 0 24.199219 0 Z M 24.199219 0 "/></g></g></g><g fill="#ffffff" fill-opacity="1"><g transform="translate(105.777639, 54.874986)"><g><path d="M 11 -43.996094 C 6.160156 -43.996094 2.199219 -40.039062 2.199219 -35.199219 L 2.199219 0 L 11 0 L 11 -17.597656 L 37.398438 -17.597656 L 37.398438 0 L 46.199219 0 L 46.199219 -35.199219 C 46.199219 -40.039062 42.238281 -43.996094 37.398438 -43.996094 Z M 11 -35.199219 L 37.398438 -35.199219 L 37.398438 -26.398438 L 11 -26.398438 Z M 11 -35.199219 "/></g></g></g><g fill="#ffffff" fill-opacity="1"><g transform="translate(158.299128, 54.874986)"><g><path d="M 11 0 L 11 -28.984375 L 38.664062 -1.320312 C 39.488281 -0.496094 40.589844 0 41.796875 0 C 44.21875 0 46.199219 -1.980469 46.199219 -4.398438 L 46.199219 -43.996094 L 37.398438 -43.996094 L 37.398438 -15.015625 L 9.734375 -42.679688 C 8.910156 -43.503906 7.808594 -43.996094 6.601562 -43.996094 C 4.179688 -43.996094 2.199219 -42.019531 2.199219 -39.597656 L 2.199219 0 Z M 11 0 "/></g></g></g><g fill="#ffffff" fill-opacity="1"><g transform="translate(210.820617, 54.874986)"><g><path d="M 46.199219 -43.996094 L 2.199219 -43.996094 L 2.199219 -35.199219 L 19.800781 -35.199219 L 19.800781 0 L 28.597656 0 L 28.597656 -35.199219 L 46.199219 -35.199219 Z M 46.199219 -43.996094 "/></g></g></g><g fill="#ffffff" fill-opacity="1"><g transform="translate(263.342105, 54.874986)"><g><path d="M 46.199219 0 L 46.199219 -8.800781 L 28.597656 -8.800781 L 28.597656 -35.199219 L 46.199219 -35.199219 L 46.199219 -43.996094 L 2.199219 -43.996094 L 2.199219 -35.199219 L 19.800781 -35.199219 L 19.800781 -8.800781 L 2.199219 -8.800781 L 2.199219 0 Z M 46.199219 0 "/></g></g></g><g fill="#ffffff" fill-opacity="1"><g transform="translate(315.863594, 54.874986)"><g><path d="M 11 -43.996094 C 6.160156 -43.996094 2.199219 -40.039062 2.199219 -35.199219 L 2.199219 0 L 11 0 L 11 -17.597656 L 37.398438 -17.597656 L 37.398438 0 L 46.199219 0 L 46.199219 -35.199219 C 46.199219 -40.039062 42.238281 -43.996094 37.398438 -43.996094 Z M 11 -35.199219 L 37.398438 -35.199219 L 37.398438 -26.398438 L 11 -26.398438 Z M 11 -35.199219 "/></g></g></g></g></g></g></svg>